HIERARCHY
ROOT Hips
{
  OFFSET 40.9192 92.6879 18.85
  CHANNELS 6 Xposition Yposition Zposition Zrotation Xrotation Yrotation
  JOINT LeftUpLeg
  {
    OFFSET 8.64259 1.95398 -2.38835
    CHANNELS 3 Zrotation Xrotation Yrotation
    JOINT LeftLeg
    {
      OFFSET 43.7702 0 0
      CHANNELS 3 Zrotation Xrotation Yrotation
      JOINT LeftFoot
      {
        OFFSET 40.6238 0 0
        CHANNELS 3 Zrotation Xrotation Yrotation
        JOINT LeftToeBase
        {
          OFFSET 12.7242 0 0
          CHANNELS 3 Zrotation Xrotation Yrotation
          End Site
          {
            OFFSET 0 0 0
          }
        }
      }
    }
  }
  JOINT RightUpLeg
  {
    OFFSET -8.2249 1.95398 -2.59336
    CHANNELS 3 Zrotation Xrotation Yrotation
    JOINT RightLeg
    {
      OFFSET 43.5653 0 0
      CHANNELS 3 Zrotation Xrotation Yrotation
      JOINT RightFoot
      {
        OFFSET 40.6238 0 0
        CHANNELS 3 Zrotation Xrotation Yrotation
        JOINT RightToeBase
        {
          OFFSET 12.7242 0 0
          CHANNELS 3 Zrotation Xrotation Yrotation
          End Site
          {
            OFFSET 0 0 0
          }
        }
      }
    }
  }
  JOINT Spine
  {
    OFFSET 0.165834 0.87714 6.61349
    CHANNELS 3 Zrotation Xrotation Yrotation
    JOINT Spine1
    {
      OFFSET 7.38963 1.71661e-005 0
      CHANNELS 3 Zrotation Xrotation Yrotation
      JOINT Spine2
      {
        OFFSET 11.9445 1.14441e-005 0
        CHANNELS 3 Zrotation Xrotation Yrotation
        JOINT Spine3
        {
          OFFSET 14.7254 4.19617e-005 0
          CHANNELS 3 Zrotation Xrotation Yrotation
          JOINT Spine4
          {
            OFFSET 10.9679 0 0
            CHANNELS 3 Zrotation Xrotation Yrotation
            JOINT RightShoulder
            {
              OFFSET 2.46616 -1.6653 3.69651
              CHANNELS 3 Zrotation Xrotation Yrotation
              JOINT RightArm
              {
                OFFSET 13.0012 0 0
                CHANNELS 3 Zrotation Xrotation Yrotation
                JOINT RightForeArm
                {
                  OFFSET 28.7848 1.52588e-005 0
                  CHANNELS 3 Zrotation Xrotation Yrotation
                  JOINT RightHand
                  {
                    OFFSET 26.5688 1.52588e-005 0
                    CHANNELS 3 Zrotation Xrotation Yrotation
                    End Site
                    {
                      OFFSET 0 0 0
                    }
                  }
                }
              }
            }
            JOINT LeftShoulder
            {
              OFFSET 2.38034 -1.29275 -3.7523
              CHANNELS 3 Zrotation Xrotation Yrotation
              JOINT LeftArm
              {
                OFFSET 16.3182 6.10351e-005 0
                CHANNELS 3 Zrotation Xrotation Yrotation
                JOINT LeftForeArm
                {
                  OFFSET 27.0901 0 0
                  CHANNELS 3 Zrotation Xrotation Yrotation
                  JOINT LeftHand
                  {
                    OFFSET 24.5451 1.52588e-005 0
                    CHANNELS 3 Zrotation Xrotation Yrotation
                    End Site
                    {
                      OFFSET 0 0 0
                    }
                  }
                }
              }
            }
            JOINT Neck
            {
              OFFSET 5.0226 -0.0266342 0
              CHANNELS 3 Zrotation Xrotation Yrotation
              JOINT Head
              {
                OFFSET 6.69363 2.86102e-005 0
                CHANNELS 3 Zrotation Xrotation Yrotation
                End Site
                {
                  OFFSET 0 0 0
                }
              }
            }
          }
        }
      }
    }
  }
}
MOTION
Frames:	9
Frame Time:	0.0416667
-53.6142 97.6615 48.3457 -131.943 -83.6323 -132.219 -170.106 1.24337 93.1114 -17.1715 12.7361 -2.25587 60.2455 1.07666 1.65747 36.1401 5.79042 0.927229 174.102 2.49642 87.8967 -21.1887 -9.58715 -2.83095 63.4766 -2.50059 -1.39442 36.3023 0.371354 -3.29137 0.324331 7.21271 -89.9503 12.4486 0.668067 0.0225696 0.777782 0.668403 -0.00686446 -21.7586 0.630389 0.222308 -1.74599 0.630394 0.222314 86.8022 -47.9181 -106.312 17.3223 -13.2642 -26.5146 8.04809 -21.0222 -39.5056 -8.89814 -0.734791 2.4659 -104.914 -48.172 56.1706 -2.83969 18.5518 -26.432 -7.17688 2.35364 -30.9809 10.3659 0.170157 -2.03479 8.70986 3.25929 2.99828 13.4334 3.37038 4.63075 
-53.7256 97.138 46.9106 -119.269 -83.2626 -119.188 -169.939 2.45667 93.1309 -16.6372 11.6895 -2.50439 61.9593 2.53131 3.94614 35.799 5.52158 -0.496428 174.559 3.2205 88.7455 -19.2732 -8.27149 -2.58461 65.6648 -3.34755 -1.85077 33.5548 0.275602 -1.53996 0.37586 7.41423 -89.9974 12.0459 0.748527 -0.0764632 0.375144 0.744433 -0.109338 -22.1617 0.736886 0.152045 -2.14906 0.736899 0.152045 87.0292 -49.1572 -105.596 20.6917 -10.1547 -16.7142 5.90736 -27.5583 -31.4432 -8.26414 -1.09282 6.41314 -106.949 -49.2348 53.7573 -7.812 19.9225 -18.2857 -6.00332 13.9934 -20.963 11.548 0.950622 4.04301 9.4099 3.1464 3.41899 15.4404 3.1978 4.40346 
-53.8093 96.9326 45.4359 -100.278 -83.1137 -99.8412 -170.119 5.38264 93.0597 -17.0024 8.91692 -2.44566 63.5117 3.13789 2.75205 33.3907 3.66257 -0.855649 175.199 5.33398 89.5737 -17.722 -8.8276 -2.53851 65.925 -3.52243 -1.94984 32.1981 0.222226 -1.43178 0.311493 7.5524 -89.9975 11.7694 0.620745 -0.0609177 0.0985617 0.617463 -0.0881921 -22.4377 0.610347 0.128454 -2.4251 0.610359 0.128466 88.2733 -49.6744 -103.548 22.6914 -7.73758 -5.1102 2.03614 -32.2409 -29.6974 -5.26823 -1.097 9.27372 -104.953 -49.7622 56.8179 -15.9017 20.6327 -5.45975 -4.82836 17.0032 -19.5751 11.9262 1.13788 5.2987 10.5437 3.5947 2.80436 17.7094 3.88868 4.77354 
-53.8661 96.851 43.7965 -84.8274 -82.6968 -84.1348 -170.263 7.56622 93.1632 -15.7859 8.88182 -2.53625 64.8953 3.69542 1.71378 30.5481 1.03236 4.63588 175.694 7.35309 90.1986 -16.1646 -9.30844 -2.41749 65.9212 -3.61647 -2.01866 34.8888 0.333676 -1.98245 0.212445 7.72209 -89.9229 11.4296 0.458746 0.107612 -0.241223 0.463041 0.0873054 -22.7769 0.405198 0.240517 -2.76423 0.405189 0.240497 89.2683 -49.9972 -101.943 22.1977 -8.53622 6.02936 1.11123 -33.3618 -31.5678 -4.21241 -0.99545 8.9967 -101.801 -49.2011 61.0955 -22.7672 21.6057 8.06182 -2.61087 16.6844 -23.7112 7.30007 0.673348 4.65895 11.2152 3.73619 1.41146 19.4248 4.44997 5.14486 
-53.9243 96.9466 42.3721 -68.7093 -82.1498 -67.7501 -170.326 9.9683 93.297 -14.798 8.5488 -2.64609 65.8337 4.28416 1.71703 33.3944 3.43456 5.47363 175.532 8.78596 90.6142 -13.3728 -9.24442 -1.74693 67.0722 -4.0729 -2.24572 41.6954 0.427025 -4.49754 0.157183 7.83214 -89.8802 11.2093 0.368603 0.202215 -0.46164 0.377149 0.185788 -22.997 0.290789 0.303646 -2.9843 0.290789 0.303643 89.9521 -48.9268 -101.149 23.3809 -9.80153 14.5446 0.612114 -35.4628 -32.3835 -4.9443 -1.1114 9.47985 -99.3467 -47.9792 64.2121 -29.2998 21.9434 18.4517 -2.23598 14.0683 -27.1502 9.23318 0.827528 4.64532 12.0229 3.76687 0.466082 19.5249 4.71812 5.32783 
-54.0381 97.0465 41.2269 -56.1771 -80.6368 -54.7579 -170.183 12.0599 93.6008 -13.5644 7.936 -2.86053 68.6111 6.50634 2.81063 39.9712 9.17957 6.67827 175.429 9.13682 91.1996 -8.93228 -9.32597 -1.00773 69.3789 -5.04645 -2.71083 44.2462 0.22955 -7.7679 0.213784 7.87609 -89.8496 11.1211 0.495378 0.251196 -0.549775 0.505966 0.22915 -23.0853 0.396986 0.388471 -3.07263 0.396984 0.388463 89.7373 -48.3618 -101.62 25.0353 -10.032 20.1517 1.07161 -36.1454 -31.6523 -3.93936 -1.02594 9.49436 -97.3615 -46.9461 66.8021 -33.2822 22.2105 24.2334 -2.7259 12.3974 -28.5351 10.3461 0.785332 3.47786 13.7789 3.6712 -1.16176 18.4279 5.05347 5.88129 
-53.9979 97.1346 40.3166 -49.9427 -79.7336 -48.0639 -170.027 13.1627 93.8224 -12.9235 6.8768 -2.94018 72.89 9.4568 1.68812 42.8706 12.1509 10.6941 174.9 9.62545 91.5392 -6.94597 -8.00389 0.0190182 72.3997 -6.08752 -3.08075 47.8105 -0.114598 -10.3145 0.216368 7.9366 -89.8271 10.9999 0.510903 0.295224 -0.670953 0.523396 0.272445 -23.2064 0.398543 0.435118 -3.19374 0.398549 0.435115 89.9719 -48.0098 -101.339 26.7373 -9.49083 22.8618 0.103656 -36.3291 -31.7014 -3.31434 -0.935205 8.57773 -96.6239 -46.2273 67.6708 -35.8437 21.8746 27.5089 -3.1563 11.3168 -28.983 11.4033 0.748278 2.56435 14.8468 3.28515 -1.68549 18.079 4.65771 5.20941 
-54.0126 97.0801 39.6209 -45.0052 -79.0112 -43.0118 -170.287 14.3904 93.6621 -12.8089 6.92042 -2.79142 75.3319 11.5312 1.51438 43.4692 13.0995 13.7765 174.972 10.7932 91.8234 -6.66007 -8.45345 0.223112 74.6597 -6.86528 -3.32649 48.0347 0.0196463 -9.02753 0.199336 7.96675 -89.7935 10.9395 0.492445 0.364162 -0.731408 0.507988 0.342117 -23.2666 0.36023 0.495323 -3.25396 0.360229 0.495315 90.1213 -47.8613 -101.141 27.7263 -9.42798 23.5558 0.894004 -35.1966 -31.2561 -5.38844 -1.07353 8.12456 -96.291 -45.9624 68.0887 -36.4351 21.5223 28.1596 -3.4088 11.0119 -28.4861 12.1872 0.753797 2.23197 16.2782 3.1878 -2.30949 17.3074 4.78891 5.65088 
-53.9339 97.0529 39.2518 -44.7098 -79.0391 -42.7461 -170.353 14.4678 93.5327 -12.596 7.21906 -2.77256 75.777 12.3923 2.68952 43.6652 13.2414 13.388 175.221 11.0507 91.8927 -6.8084 -8.8814 -0.0383784 75.0452 -7.07006 -3.40057 48.7184 0.0130366 -8.93532 0.228494 8.0232 -89.7854 10.8265 0.554112 0.375162 -0.844413 0.570092 0.350416 -23.3797 0.415743 0.524359 -3.36709 0.415745 0.524359 89.6205 -47.9568 -101.903 28.1587 -9.0922 23.8672 0.798745 -33.9938 -31.3034 -6.32423 -1.11772 7.79873 -96.383 -46.0741 67.9861 -35.7462 21.328 27.3446 -3.25733 11.2885 -28.1568 12.0649 0.812775 2.7527 15.8353 3.22447 -2.63874 17.7962 5.07948 6.41292 
